<?xml version="1.0" encoding="UTF-8"?>
<svg width="500" height="212.87" version="1.1" viewBox="0 0 132.29167 56.32265" xmlns="http://www.w3.org/2000/svg">
 <defs>
  <linearGradient id="aa" x1="873.14" x2="872.73" y1="529.47" y2="501.53" gradientTransform="matrix(.36501 0 0 .36501 -257.81 55.444)" gradientUnits="userSpaceOnUse">
   <stop stop-color="#fcfdfd" offset="0"/>
   <stop stop-color="#665c48" offset="1"/>
  </linearGradient>
  <linearGradient id="ab" x1="1012.7" x2="1012.7" y1="504.48" y2="527.73" gradientTransform="translate(-48.695 -1027.8)" gradientUnits="userSpaceOnUse">
   <stop stop-color="#fd4d39" offset="0"/>
   <stop stop-color="#e9271d" offset="1"/>
  </linearGradient>
  <linearGradient id="ad" x1="646.16" x2="673.7" y1="771.61" y2="763.8" gradientTransform="matrix(.36501 0 0 .36501 -225.93 -42.728)" gradientUnits="userSpaceOnUse">
   <stop stop-color="#4d4d4d" offset="0"/>
   <stop offset="1"/>
  </linearGradient>
  <linearGradient id="u" x1="662.42" x2="662.42" y1="733.84" y2="720.24" gradientTransform="matrix(.36501 0 0 .36501 -229.22 -28.783)" gradientUnits="userSpaceOnUse">
   <stop stop-color="#d8d5c6" offset="0"/>
   <stop offset="1"/>
  </linearGradient>
  <linearGradient id="v" x1="708.09" x2="708.09" y1="737.92" y2="721.95" gradientTransform="matrix(.36501 0 0 .36501 -229.22 -28.783)" gradientUnits="userSpaceOnUse">
   <stop stop-color="#d8d5c6" offset="0"/>
   <stop stop-color="#131813" offset="1"/>
  </linearGradient>
  <linearGradient id="s" x1="656.27" x2="677.13" y1="726.82" y2="726.82" gradientUnits="userSpaceOnUse">
   <stop stop-color="#d8d5c6" offset="0"/>
   <stop offset="1"/>
  </linearGradient>
  <linearGradient id="t" x1="719.53" x2="704.33" y1="728.67" y2="728.67" gradientTransform="matrix(0 -.36501 .36501 0 -243.5 487.49)" gradientUnits="userSpaceOnUse">
   <stop stop-color="#d8d5c6" offset="0"/>
   <stop offset="1"/>
  </linearGradient>
  <linearGradient id="x" x1="760.77" x2="760.57" y1="771.82" y2="758.72" gradientTransform="matrix(1 0 0 1.0201 -2.5e-5 -15.439)" gradientUnits="userSpaceOnUse">
   <stop stop-color="#101511" offset="0"/>
   <stop stop-color="#1e201a" offset="1"/>
  </linearGradient>
  <linearGradient id="y" x1="761.22" x2="761.22" y1="726.99" y2="745.72" gradientTransform="matrix(.36501 0 0 .38628 -255.87 -52.026)" gradientUnits="userSpaceOnUse">
   <stop stop-color="#101511" offset="0"/>
   <stop offset="1"/>
  </linearGradient>
  <linearGradient id="z" x1="781.45" x2="777.26" y1="751.7" y2="741.82" gradientTransform="translate(-.1664 .33279)" gradientUnits="userSpaceOnUse">
   <stop stop-color="#101511" offset="0"/>
   <stop stop-color="#1e201a" offset="1"/>
  </linearGradient>
  <linearGradient id="w" x1="742.12" x2="744.31" y1="749.67" y2="741.51" gradientTransform="matrix(1.0233 0 0 1 -17.03 .20061)" gradientUnits="userSpaceOnUse">
   <stop stop-color="#101511" offset="0"/>
   <stop stop-color="#1e201a" offset="1"/>
  </linearGradient>
  <linearGradient id="ac" x1="686.13" x2="688.13" y1="734.7" y2="727.24" gradientTransform="translate(2.6241e-5 6.1435e-5)" gradientUnits="userSpaceOnUse">
   <stop stop-color="#d7d4c5" offset="0"/>
   <stop offset="1"/>
  </linearGradient>
  <linearGradient id="ae" x1="1012.7" x2="1012.7" y1="504.48" y2="527.73" gradientTransform="translate(-48.695 -1027.8)" gradientUnits="userSpaceOnUse">
   <stop stop-color="#fd4d39" offset="0"/>
   <stop stop-color="#e9281e" offset="1"/>
  </linearGradient>
  <linearGradient id="af" x1="35.192" x2="35.545" y1="199.79" y2="199.79" gradientTransform="matrix(2.0802 0 0 1 -37.746 -.02283)" gradientUnits="userSpaceOnUse">
   <stop stop-color="#cbcac3" offset="0"/>
   <stop stop-color="#eee1d4" offset="1"/>
  </linearGradient>
  <linearGradient id="ag" x1="35.192" x2="35.786" y1="199.79" y2="199.74" gradientTransform="matrix(.89114 0 0 1 -66.806 -.022822)" gradientUnits="userSpaceOnUse">
   <stop stop-color="#cbcac3" offset="0"/>
   <stop stop-color="#e8d7c5" offset="1"/>
  </linearGradient>
  <linearGradient id="ah" x1="35.192" x2="35.538" y1="199.79" y2="199.77" gradientTransform="matrix(4.056 0 0 1 -178.93 -.022822)" gradientUnits="userSpaceOnUse">
   <stop stop-color="#cbcac3" offset="0"/>
   <stop stop-color="#f0e5da" offset="1"/>
  </linearGradient>
  <radialGradient id="aj" cx="37.378" cy="199.67" r="2.3758" gradientTransform="matrix(1 0 0 .35735 -7.4854e-6 128.35)" gradientUnits="userSpaceOnUse">
   <stop stop-color="#fbf8f4" offset="0"/>
   <stop stop-color="#e8d7c5" offset="1"/>
  </radialGradient>
  <linearGradient id="ai" x1="37.448" x2="37.448" y1="200.04" y2="199.93" gradientTransform="matrix(3.7795 0 0 3.7795 0 -622.52)" gradientUnits="userSpaceOnUse">
   <stop stop-color="#fff" offset="0"/>
   <stop stop-color="#e8d7c5" offset="1"/>
  </linearGradient>
 </defs>
 <g transform="translate(0 -240.68)">
  <g transform="translate(-4.077e-6 37.985)">
   <g transform="matrix(.36501 0 0 .36501 -257.81 120.65)" fill-rule="evenodd">
    <path d="m709.53 224.76h356.01c1.7775 0 3.2086 1.431 3.2086 3.2086v147.89c0 1.7776-1.4311 3.2086-3.2086 3.2086h-356.01c-1.7776 0-3.2086-1.431-3.2086-3.2086v-147.89c0-1.7776 1.431-3.2086 3.2086-3.2086z" fill="#e8d7c5" style="paint-order:normal"/>
    <path d="m717.94 246.68h339.18c1.8202 0 3.2856 1.4654 3.2856 3.2856v116.96c0 1.8202-1.4654 3.2856-3.2856 3.2856h-339.18c-1.8202 0-3.2856-1.4654-3.2856-3.2856v-116.96c0-1.8202 1.4654-3.2856 3.2856-3.2856z" fill="#1d2226" style="paint-order:normal"/>
   </g>
   <path d="m43.153 218.85h33.865c1.1397 0 2.0573 0.91756 2.0573 2.0573v2.2384c0 1.1398-0.91756 2.0573-2.0573 2.0573h-33.865c-1.1397 0-2.0573-0.91756-2.0573-2.0573v-2.2384c0-1.1397 0.91756-2.0573 2.0573-2.0573z" fill="#a69474" fill-rule="evenodd" style="paint-order:normal"/>
   <path d="m43.153 227.21h33.865c1.1397 0 2.0573 0.91755 2.0573 2.0573v2.2384c0 1.1398-0.91756 2.0573-2.0573 2.0573h-33.865c-1.1397 0-2.0573-0.91755-2.0573-2.0573v-2.2384c0-1.1398 0.91756-2.0573 2.0573-2.0573z" fill="#a69474" fill-rule="evenodd" style="paint-order:normal"/>
   <path d="m79.076 210.7v4.0801c0 1.1397-0.91756 2.0573-2.0573 2.0573h-33.865c-1.1397 0-2.0573-0.91756-2.0573-2.0573v-4.0801z" fill="#a69474" fill-rule="evenodd" style="paint-order:normal"/>
   <path d="m43.153 251.95h33.865c1.1397 0 2.0573 0.91756 2.0573 2.0573v1.778h-37.98v-1.778c0-1.1397 0.91756-2.0573 2.0573-2.0573z" fill="#a69474" fill-rule="evenodd" style="paint-order:normal"/>
   <path d="m43.724 236.11h32.724c1.284 0 2.3177 1.0272 2.3177 2.3032v8.8249c0 1.276-1.0337 2.3032-2.3177 2.3032h-32.724c-1.284 0-2.3177-1.0272-2.3177-2.3032v-8.8249c0-1.276 1.0337-2.3032 2.3177-2.3032z" fill="#d7c2af" fill-rule="evenodd" style="paint-order:normal"/>
   <path d="m43.561 237.29h33.051c0.50355 0 0.90894 0.40539 0.90894 0.90894v9.2575c0 0.50355-0.40538 0.90894-0.90894 0.90894h-33.051c-0.50355 0-0.90894-0.40539-0.90894-0.90894v-9.2575c0-0.50355 0.40539-0.90894 0.90894-0.90894z" fill="url(#aa)" fill-rule="evenodd" style="paint-order:normal"/>
   <path d="m44.15 238.32h31.872c0.26262 0 0.47403 0.21142 0.47403 0.47404v8.0551c0 0.26262-0.21142 0.47403-0.47403 0.47403h-31.872c-0.26261 0-0.47403-0.21141-0.47403-0.47403v-8.0551c0-0.26262 0.21142-0.47404 0.47403-0.47404z" fill="#d7c2af" fill-rule="evenodd" style="paint-order:normal"/>
   <g transform="matrix(.36501 0 0 .36501 -258.53 55.444)" fill-rule="evenodd">
    <g transform="translate(1.3604)">
     <path d="m838.34 506.82h18.37c3.0974 0 5.5909 2.4936 5.5909 5.5909v1.8969c0 3.0974-2.4935 5.5909-5.5909 5.5909h-18.37c-3.0974 0-5.5909-2.4935-5.5909-5.5909v-1.8969c0-3.0974 2.4935-5.5909 5.5909-5.5909z" fill="#252721" style="paint-order:normal"/>
     <path d="m839.77 508.31h15.497c2.6129 0 4.7164 1.9512 4.7164 4.375v1.4844c0 2.4237-2.1035 4.375-4.7164 4.375h-15.497c-2.6129 0-4.7164-1.9512-4.7164-4.375v-1.4844c0-2.4237 2.1035-4.375 4.7164-4.375z" fill="#2e352e" style="paint-order:normal"/>
    </g>
    <g transform="translate(49.368 -2.1935e-5)">
     <path d="m838.34 506.82h18.37c3.0974 0 5.5909 2.4936 5.5909 5.5909v1.8969c0 3.0974-2.4935 5.5909-5.5909 5.5909h-18.37c-3.0974 0-5.5909-2.4935-5.5909-5.5909v-1.8969c0-3.0974 2.4935-5.5909 5.5909-5.5909z" fill="#252721" style="paint-order:normal"/>
     <path d="m839.77 508.31h15.497c2.6129 0 4.7164 1.9512 4.7164 4.375v1.4844c0 2.4237-2.1035 4.375-4.7164 4.375h-15.497c-2.6129 0-4.7164-1.9512-4.7164-4.375v-1.4844c0-2.4237 2.1035-4.375 4.7164-4.375z" fill="#2e352e" style="paint-order:normal"/>
    </g>
   </g>
   <g transform="matrix(.39193 0 0 .33994 -257.81 55.444)" fill="#ff0" style="font-feature-settings:normal;font-variant-caps:normal;font-variant-ligatures:normal;font-variant-numeric:normal" aria-label="B">
    <path d="m911.41 584.52q0.32618 0 0.56455-0.22582 0.23837-0.23836 0.23837-0.5771 0-0.32618-0.23837-0.56455t-0.56455-0.23837h-4.0146v1.6058zm0-3.2117q0.32618 0 0.56455-0.22582 0.23837-0.23836 0.23837-0.5771 0-0.32618-0.23837-0.56455t-0.56455-0.23837h-4.0146v1.6058zm-5.6204 4.8175v-8.0292h6.4234q0.66492 0 1.1291 0.47674 0.47674 0.47673 0.47674 1.1291v1.6058q0 0.33874-0.23837 0.5771-0.23837 0.22582-0.56455 0.22582 0.32618 0 0.56455 0.23837t0.23837 0.56455v1.6058q0 0.67747-0.47674 1.1417-0.47673 0.46418-1.1291 0.46418z" fill="#ed4036" stroke-width=".8" style="font-feature-settings:normal;font-variant-caps:normal;font-variant-ligatures:normal;font-variant-numeric:normal"/>
   </g>
   <g transform="matrix(.39193 0 0 .33994 -257.81 55.444)" fill="#ff0" style="font-feature-settings:normal;font-variant-caps:normal;font-variant-ligatures:normal;font-variant-numeric:normal" aria-label="A">
    <path d="m956.38 582.09v-1.5836c0-0.21745-0.0795-0.40564-0.23837-0.56455-0.15891-0.15891-0.3471-0.23837-0.56455-0.23837h-2.7593c-0.22583 0-0.41819 0.0795-0.5771 0.23837-0.15055 0.15891-0.22582 0.3471-0.22582 0.56455v1.5836zm-6.5771 4.0369v-6.4234c0-0.44328 0.15473-0.81965 0.46418-1.1291 0.31783-0.31783 0.69838-0.47674 1.1417-0.47674h5.7003c0.44328 0 0.81965 0.15891 1.1291 0.47674 0.31783 0.31782 0.47674 0.69419 0.47674 1.1291v6.4234h-2.3349v-1.793h-4.3652v1.793z" fill="#ed4036" stroke-width=".8" style="font-feature-settings:normal;font-variant-caps:normal;font-variant-ligatures:normal;font-variant-numeric:normal"/>
   </g>
   <g transform="matrix(.36501 0 0 .36501 -257.95 -10.502)" fill="#ed4036" stroke-width=".8">
    <path d="m824.9 662.86h4.5114c1.2891 0 1.9337-0.59095 1.9337-1.7728 0-1.1813-0.64458-1.7723-1.9337-1.7723h-3.2223v-0.96627h5.1559v-1.2891h-4.5113c-1.2892 0-1.9338 0.59901-1.9338 1.7976 0 1.1646 0.64459 1.7469 1.9338 1.7469h3.2222v0.96684h-5.1559z"/>
    <path d="m839.07 662.86h-4.5113c-1.2885 0-1.9337-0.64456-1.9337-1.9337v-3.8668h6.445v1.2886h-5.1559v0.96627h5.1559v1.2886h-5.1559v0.32286c0 0.42952 0.21508 0.64457 0.64459 0.64457h4.5113z"/>
    <path d="m840.26 657.05v3.8668c0 1.2886 0.64458 1.9337 1.9331 1.9337h3.3857v-1.2886h-3.3857c-0.42951 0-0.64449-0.21504-0.64449-0.64456v-3.8668h-1.2886z"/>
    <path d="m853.03 662.86h-4.5114c-1.2892 0-1.9331-0.64456-1.9331-1.9337v-3.8668h6.4444v1.2886h-5.1559v0.96627h5.1559v1.2886h-5.1559v0.32286c0 0.42952 0.21509 0.64457 0.64459 0.64457h4.5114z"/>
    <path d="m860.89 662.86h-4.5113c-1.2892 0-1.9337-0.64456-1.9337-1.9337v-1.9337c0-1.2886 0.6445-1.9331 1.9337-1.9331h4.5113v1.2886h-4.5113c-0.43007 0-0.64459 0.21505-0.64459 0.64456v1.9337c0 0.42952 0.21508 0.64456 0.64459 0.64456h4.5113z"/>
    <path d="m861.53 657.05h6.445v1.2891h-2.5782v4.5114h-1.2885v-4.5114h-2.5782z"/>
    <path d="m878.74 662.86h4.5114c1.2892 0 1.9326-0.59096 1.9326-1.7729 0-1.1813-0.64337-1.7723-1.9326-1.7723h-3.2229v-0.96629h5.1555v-1.2892h-4.5109c-1.2892 0-1.9337 0.59903-1.9337 1.7982 0 1.1646 0.64451 1.7464 1.9337 1.7464h3.2223v0.96687h-5.156v1.2892z"/>
    <path d="m886.83 657.05h6.4457v1.2892h-2.5783v4.5115h-1.2891v-4.5115h-2.5783z"/>
    <path d="m899.9 659.95v-0.96687c0-0.43011-0.21499-0.64516-0.6445-0.64516h-2.5778c-0.43017 0-0.6446 0.21505-0.6446 0.64516v0.96687zm-3.8668 1.2886v1.6114h-1.2885v-3.8669c0-1.2892 0.64451-1.9337 1.9337-1.9337h2.5777c1.2891 0 1.9337 0.64457 1.9337 1.9337v3.8669h-1.2891v-1.6114z"/>
    <path d="m904.45 659.31h3.8674v-0.96686h-3.8674zm0 1.2886v2.2554h-1.288v-5.8h4.5109c1.2891 0 1.9337 0.58866 1.9337 1.766 0 0.55867-0.0923 0.96917-0.27675 1.2309 0.1845 0.30499 0.27675 0.70281 0.27675 1.1923v1.6109h-1.2886v-1.6109c0-0.42952-0.21508-0.64457-0.6446-0.64457z"/>
    <path d="m911.25 657.05h6.4452v1.2892h-2.5783v4.5115h-1.2886v-4.5115h-2.5783z"/>
   </g>
   <g transform="translate(9.184e-7 3.6837e-6)">
    <path d="m86.947 235.64h12.244c0.63574 0 1.1475 0.5118 1.1475 1.1475v12.244c0 0.63574-0.5118 1.1475-1.1475 1.1475h-12.244c-0.63574 0-1.1475-0.5118-1.1475-1.1475v-12.244c0-0.63574 0.5118-1.1475 1.1475-1.1475z" fill="#d7c2af" fill-rule="evenodd" style="paint-order:normal"/>
    <path d="m99.156 242.91a6.0876 6.0876 0 0 1 -6.0876 6.0876 6.0876 6.0876 0 0 1 -6.0876 -6.0876 6.0876 6.0876 0 0 1 6.0876 -6.0876 6.0876 6.0876 0 0 1 6.0876 6.0876z" fill="#222621" fill-rule="evenodd" style="paint-order:normal"/>
    <g transform="matrix(.36501 0 0 .36501 -257.81 55.444)" fill-rule="evenodd">
     <path d="m976.5 513.35a15.208 15.208 0 0 1 -15.208 15.208 15.208 15.208 0 0 1 -15.208 -15.208 15.208 15.208 0 0 1 15.208 -15.208 15.208 15.208 0 0 1 15.208 15.208z" fill="#e9271d" style="paint-order:normal"/>
     <path transform="scale(1,-1)" d="m975.64-513.35a14.345 14.345 0 0 1 -14.345 14.345 14.345 14.345 0 0 1 -14.345 -14.345 14.345 14.345 0 0 1 14.345 -14.345 14.345 14.345 0 0 1 14.345 14.345z" fill="url(#ab)" style="paint-order:normal"/>
    </g>
    <path d="m97.627 240.19c-0.92491-1.6555-2.6726-2.6815-4.5689-2.6823-2.7478-7e-5 -5.0283 2.124-5.2231 4.8649" fill="none" stroke="#f17972" stroke-width=".146" style="paint-order:normal"/>
   </g>
   <g transform="translate(9.184e-7 3.6837e-6)">
    <path d="m17.82 223.77c-0.65039 0-1.1737 0.48487-1.1773 1.088v6.0241c-4e-6 0.36494-0.29374 0.65868-0.65867 0.65868h-5.0618c-0.04031 0-0.07924-5e-3 -0.11752-0.012-0.2344 3e-3 -0.4006 8e-3 -0.65023 0.012-0.6061 0-1.0943 0.52599-1.0943 1.1787v7.5296c0 0.65274 0.48818 1.1787 1.0943 1.1787l0.76775-1e-3h5.0618c0.36493 0 0.65867 0.29374 0.65867 0.65868v6.0099c0.0033 0.60308 0.52693 1.088 1.1773 1.088h7.9082c0.65039 0 1.1736-0.48487 1.1773-1.088v-6.01c0-0.36493 0.29374-0.65868 0.65868-0.65868h5.0618l0.76776 1e-3c0.6061 0 1.0943-0.52599 1.0943-1.1787v-7.5296c0-0.65275-0.48818-1.1787-1.0943-1.1787-0.24963-3e-3 -0.41584-9e-3 -0.65024-0.012-0.03827 7e-3 -0.07721 0.012-0.11752 0.012h-5.0618c-0.36494 0-0.65867-0.29374-0.65868-0.65868v-6.0241c-0.0033-0.60308-0.52693-1.088-1.1773-1.088z" fill="url(#ad)" fill-rule="evenodd" style="paint-order:normal"/>
    <path d="m17.403 223.34c-0.67182 0-1.2122 0.51447-1.2159 1.1549v5.8493c0 0.38755-0.30345 0.69979-0.6804 0.69979h-4.7685c-0.04164 0-0.08193-6e-3 -0.12148-0.0137-0.24211 4e-3 -0.41399 0.01-0.67185 0.0137-0.62607 0-1.1304 0.55812-1.1304 1.2513v8.3439c0 0.69319 0.50432 1.2519 1.1304 1.2519l0.79333-1e-3h4.7651c0.37695 0 0.6804 0.31167 0.68041 0.69922v5.8795c0.0037 0.64044 0.54412 1.156 1.2159 1.156h8.7477c0.67181 0 1.2122-0.51561 1.2159-1.156v-5.8795c0-0.38755 0.30345-0.69922 0.6804-0.69922h4.7651l0.79333 1e-3c0.62606 0 1.1304-0.55868 1.1304-1.2519v-8.3439c0-0.69319-0.50433-1.2513-1.1304-1.2513-0.25787-4e-3 -0.42974-0.01-0.67185-0.0137-0.03955 7e-3 -0.07984 0.0137-0.12148 0.0137h-4.7685c-0.37695 0-0.6804-0.31224-0.6804-0.69979v-5.8493c-0.0037-0.64045-0.54412-1.1549-1.2159-1.1549h-8.7409zm0.38668 0.54067h7.9675c0.59616 0 1.0758 0.45713 1.0791 1.0254v6.0552c7e-6 0.34392 0.26891 0.6211 0.60341 0.6211h5.0594c0.03695 0 0.07271-5e-3 0.10779-0.0114 0.21485 3e-3 0.36718 8e-3 0.596 0.0114 0.55556 0 1.0032 0.4953 1.0032 1.1104v7.5489c0 0.61513-0.44766 1.111-1.0032 1.111l-0.70379-1e-3h-5.056c-0.33451 0-0.60397 0.27661-0.60398 0.62052v6.1031c-0.0033 0.56834-0.48291 1.0249-1.0791 1.0249h-7.9732c-0.59616 0-1.0758-0.45655-1.0791-1.0249v-6.1031c-4e-6 -0.34391-0.26947-0.62052-0.60398-0.62052h-5.056l-0.70378 1e-3c-0.55557 0-1.0032-0.49587-1.0032-1.111v-7.5489c0-0.61513 0.44765-1.1104 1.0032-1.1104 0.22882-3e-3 0.38114-8e-3 0.59599-0.0114 0.03508 6e-3 0.07085 0.0114 0.1078 0.0114h5.0594c0.3345 0 0.6034-0.27718 0.60341-0.6211v-6.0552c0.0033-0.56832 0.4829-1.0254 1.0791-1.0254z" fill="#d7c2af" fill-rule="evenodd" stroke="#d7c2af" stroke-width=".29201" style="paint-order:normal"/>
    <path d="m18.738 224.87c-0.594 0-1.072 0.44284-1.0753 0.99363v5.9044c-4e-6 0.3333-0.26827 0.60158-0.60157 0.60158h-5.1981c-0.03681 0-0.07237-5e-3 -0.10733-0.0109-0.21407 3e-3 -0.36587 8e-3 -0.59386 0.0109-0.55356 0-0.99941 0.48039-0.99941 1.0765v6.0717c0 0.59615 0.44585 1.0765 0.99941 1.0765l0.70119-1e-3h5.1981c0.33329 0 0.60156 0.26828 0.60157 0.60157v5.8915c0.0033 0.55079 0.48125 0.99363 1.0753 0.99363h6.0723c0.594 0 1.0718-0.44283 1.0752-0.99363v-5.8915c0-0.33329 0.26827-0.60157 0.60157-0.60157h5.1981l0.70119 1e-3c0.55355 0 0.99941-0.48038 0.99941-1.0765v-6.0717c0-0.59615-0.44586-1.0765-0.99941-1.0765-0.22799-3e-3 -0.37979-8e-3 -0.59386-0.011-0.03497 6e-3 -0.07052 0.011-0.10734 0.011h-5.1981c-0.3333 0-0.60156-0.26827-0.60157-0.60157v-5.9044c-0.0033-0.55079-0.48124-0.99362-1.0752-0.99362z" fill="#101511" fill-rule="evenodd" style="paint-order:normal"/>
    <path d="m19.08 225.34c-0.52711 0-0.95124 0.39297-0.95416 0.88173v6.082c-4e-6 0.29577-0.23806 0.53383-0.53382 0.53383h-5.4552c-0.03267 0-0.06422-4e-3 -0.09524-0.01-0.18997 3e-3 -0.32467 7e-3 -0.52698 0.01-0.49122 0-0.88686 0.42629-0.88686 0.9553v5.3879c0 0.52901 0.39565 0.9553 0.88686 0.9553l0.62223-1e-3h5.4552c0.29576 0 0.53382 0.23807 0.53382 0.53383v6.0831c0.0029 0.48877 0.42705 0.88174 0.95416 0.88174h5.3885c0.52712 0 0.95113-0.39297 0.95416-0.88174v-6.0831c0-0.29577 0.23806-0.53383 0.53383-0.53383h5.4552l0.62223 1e-3c0.49121 0 0.88686-0.42629 0.88686-0.9553v-5.3879c0-0.52902-0.39565-0.95531-0.88686-0.95531-0.20231-3e-3 -0.33702-7e-3 -0.52698-0.01-0.03103 6e-3 -0.06257 0.01-0.09525 0.01h-5.4552c-0.29576 0-0.53382-0.23806-0.53383-0.53383v-6.082c-0.0029-0.48877-0.42704-0.88173-0.95416-0.88173z" fill="#1e201a" fill-rule="evenodd" style="paint-order:normal"/>
    <path d="m16.738 238.7h-2.2502v0.99742l-3.437-3.2023 3.437-3.2023v0.99742h2.2502z" fill="url(#u)"/>
    <path d="m26.819 238.7h2.2502v0.99742l3.437-3.2023-3.437-3.2023v0.99742h-2.2502z" fill="url(#v)"/>
    <path transform="matrix(0 -.36501 .36501 0 -243.5 487.49)" d="m673.84 732.8h-6.1648v2.7326l-9.4163-8.7731 9.4163-8.7731v2.7326h6.1648z" fill="url(#s)"/>
    <path d="m23.984 231.45v-2.2502h0.99742l-3.2023-3.437-3.2023 3.437h0.99742v2.2502z" fill="url(#t)"/>
    <path transform="matrix(.36501 0 0 .36501 -255.87 -36.705)" d="m755.54 763.01v6.0842h-2.3078l7.4094 7.9619 7.4094-7.9619h-2.3078v-6.0842z" fill="url(#x)"/>
    <path d="m19.912 231.42v-2.3038h-0.84238l2.7045-3.0148 2.7045 3.0148h-0.84238v2.3038z" fill="url(#y)"/>
    <path transform="matrix(.36501 0 0 .36501 -255.87 -36.705)" d="m775.13 753.86h5.9641v2.3078l7.8047-7.4094-7.8047-7.4094v2.3078h-5.9641z" fill="url(#z)"/>
    <path transform="matrix(.36501 0 0 .36501 -255.87 -36.705)" d="m746.35 753.72h-6.1031v2.3078l-7.9866-7.4094 7.9866-7.4094v2.3078h6.1031z" fill="url(#w)"/>
    <path transform="matrix(.36501 0 0 .36501 -229.22 -28.783)" d="m687.64 718.49a8.2296 8.2296 0 0 0 -8.2297 8.2297 8.2296 8.2296 0 0 0 8.2297 8.2297 8.2296 8.2296 0 0 0 8.2297 -8.2297 8.2296 8.2296 0 0 0 -8.2297 -8.2297zm0 1.5328a6.6974 6.6974 0 0 1 6.6969 6.6969 6.6974 6.6974 0 0 1 -6.6969 6.6984 6.6974 6.6974 0 0 1 -6.6984 -6.6984 6.6974 6.6974 0 0 1 6.6984 -6.6969z" fill="#4d4d4d" fill-rule="evenodd" style="paint-order:normal"/>
    <path transform="matrix(.36501 0 0 .36501 -229.22 -28.783)" d="m694.5 726.72a6.8638 6.8638 0 0 1 -6.8638 6.8638 6.8638 6.8638 0 0 1 -6.8638 -6.8638 6.8638 6.8638 0 0 1 6.8638 -6.8638 6.8638 6.8638 0 0 1 6.8638 6.8638z" fill="url(#ac)" fill-rule="evenodd" stroke="#101511" stroke-width=".8px" style="paint-order:normal"/>
    <path transform="matrix(.36501 0 0 .36501 -257.81 55.444)" d="m775.9 467.81c-8e-3 -1.339-1.17-2.4156-2.6141-2.4156l-14.762 3e-5c-1.4441 0-2.6061 1.0766-2.6141 2.4156m-1.4625 18.125h-14.945c-0.0895 0-0.17593-0.0113-0.26093-0.0266-0.52044 8e-3 -0.88948 0.0186-1.4438 0.0266-1.3458 0-2.4297 1.1679-2.4297 2.6172m2.4297 17.378 1.7047-3e-3h14.945c0.81028 0 1.4625 0.65223 1.4625 1.4625m0 16.666c8e-3 1.339 1.17 2.4156 2.6141 2.4156h14.762c1.4441 0 2.6058-1.0766 2.6141-2.4156v-16.666c0-0.81029 0.65221-1.4625 1.4625-1.4625h14.945l1.7047 3e-3c1.3458 0 2.4297-1.1679 2.4297-2.6172m0-14.761c-0.16154-1.4403-1.0839-2.6172-2.4297-2.6172-0.55427-8e-3 -0.92331-0.0189-1.4438-0.0266-0.085 0.0152-0.17143 0.0266-0.26094 0.0266h-14.945c-0.81029 0-1.4625-0.65221-1.4625-1.4625" fill="none" stroke="#808080" stroke-width=".4" style="paint-order:normal"/>
   </g>
   <path d="m47.048 242.8c0-0.88469 0.7248-1.5969 1.6251-1.5969h5.3396c0.9003 0 1.6251 0.71222 1.6251 1.5969v0.54181" fill="none" stroke="#5f625f" stroke-width=".292" style="paint-order:normal"/>
   <path d="m64.553 242.8c0-0.88469 0.7248-1.5969 1.6251-1.5969h5.3396c0.9003 0 1.6251 0.71222 1.6251 1.5969v0.54181" fill="none" stroke="#5f625f" stroke-width=".29201" style="paint-order:normal"/>
   <g transform="translate(17.594 3.6837e-6)">
    <path d="m86.947 235.64h12.244c0.63574 0 1.1475 0.5118 1.1475 1.1475v12.244c0 0.63574-0.5118 1.1475-1.1475 1.1475h-12.244c-0.63574 0-1.1475-0.5118-1.1475-1.1475v-12.244c0-0.63574 0.5118-1.1475 1.1475-1.1475z" fill="#d7c2af" fill-rule="evenodd" style="paint-order:normal"/>
    <path d="m99.156 242.91a6.0876 6.0876 0 0 1 -6.0876 6.0876 6.0876 6.0876 0 0 1 -6.0876 -6.0876 6.0876 6.0876 0 0 1 6.0876 -6.0876 6.0876 6.0876 0 0 1 6.0876 6.0876z" fill="#222621" fill-rule="evenodd" style="paint-order:normal"/>
    <g transform="matrix(.36501 0 0 .36501 -257.81 55.444)" fill-rule="evenodd">
     <path d="m976.5 513.35a15.208 15.208 0 0 1 -15.208 15.208 15.208 15.208 0 0 1 -15.208 -15.208 15.208 15.208 0 0 1 15.208 -15.208 15.208 15.208 0 0 1 15.208 15.208z" fill="#e9271d" style="paint-order:normal"/>
     <path transform="scale(1,-1)" d="m975.64-513.35a14.345 14.345 0 0 1 -14.345 14.345 14.345 14.345 0 0 1 -14.345 -14.345 14.345 14.345 0 0 1 14.345 -14.345 14.345 14.345 0 0 1 14.345 14.345z" fill="url(#ae)" style="paint-order:normal"/>
    </g>
    <path d="m97.627 240.19c-0.92491-1.6555-2.6726-2.6815-4.5689-2.6823-2.7478-7e-5 -5.0283 2.124-5.2231 4.8649" fill="none" stroke="#f17972" stroke-width=".146" style="paint-order:normal"/>
   </g>
   <g fill="#ed4036" stroke="#ed4036" stroke-width=".26083" style="font-feature-settings:normal;font-variant-caps:normal;font-variant-ligatures:normal;font-variant-numeric:normal" aria-label="PlayGame">
    <path d="m91.504 219.84q0 0.53036-0.16519 0.9303-0.22606 0.53906-0.67817 0.53906h-1.0868v-0.41734h0.68686q0.28692 0 0.43472-0.40864 0.10433-0.29561 0.10433-0.66077 0-0.35648-0.10433-0.66078-0.14781-0.41733-0.43472-0.41733h-0.98247v4.5559h-0.75642v-4.9732h2.1388q0.44342 0 0.67817 0.56514 0.16519 0.42603 0.16519 0.9477z" style="font-feature-settings:normal;font-variant-caps:normal;font-variant-ligatures:normal;font-variant-numeric:normal"/>
    <path d="m92.908 223.3h-0.75642v-4.9732h0.75642z" style="font-feature-settings:normal;font-variant-caps:normal;font-variant-ligatures:normal;font-variant-numeric:normal"/>
    <path d="m96.33 223.3h-2.0954q-0.39994 0-0.60861-0.40864-0.17389-0.32169-0.17389-0.75641 0-0.44342 0.17389-0.77381 0.21736-0.41733 0.60861-0.41733h1.0086v0.41733q-0.10433 0-0.26953-9e-3 -0.1652 0-0.22606 0-0.32169 0-0.43472 0.12172-0.13911 0.1478-0.13911 0.59992 0 0.25213 0.06086 0.48688 0.09564 0.3217 0.28692 0.3217h1.0607v-2.4431q0-0.32169-0.07825-0.4608-0.10433-0.19998-0.39994-0.19998h-0.95639v-0.41733h1.2694q0.56514 0 0.76511 0.313 0.14781 0.23475 0.14781 0.84336z" style="font-feature-settings:normal;font-variant-caps:normal;font-variant-ligatures:normal;font-variant-numeric:normal"/>
    <path d="m100.25 219.35-1.991 5.6775h-0.68686l0.63469-1.7302-1.5041-3.9473h0.85206l1.0955 2.9909 1.0086-2.9909z" style="font-feature-settings:normal;font-variant-caps:normal;font-variant-ligatures:normal;font-variant-numeric:normal"/>
    <path d="m103.48 223.31h-2.0519q-0.42603 0-0.66078-0.46081-0.19127-0.36517-0.19127-0.83467v-2.3736q0-0.47819 0.19127-0.84336 0.23475-0.4695 0.66078-0.4695h1.7041v0.41734h-1.3042q-0.27823 0-0.42603 0.33038-0.11303 0.25214-0.11303 0.56514v2.3736q0 0.313 0.11303 0.55645 0.1565 0.32169 0.42603 0.32169h0.97377v-1.878h-1.0955v-0.42602h1.7737z" style="font-feature-settings:normal;font-variant-caps:normal;font-variant-ligatures:normal;font-variant-numeric:normal"/>
    <path d="m106.76 223.3h-2.0954q-0.39995 0-0.60861-0.40864-0.17389-0.32169-0.17389-0.75641 0-0.44342 0.17389-0.77381 0.21736-0.41733 0.60861-0.41733h1.0086v0.41733q-0.10433 0-0.26953-9e-3 -0.16519 0-0.22605 0-0.3217 0-0.43472 0.12172-0.13911 0.1478-0.13911 0.59992 0 0.25213 0.0609 0.48688 0.0956 0.3217 0.28691 0.3217h1.0607v-2.4431q0-0.32169-0.0782-0.4608-0.10434-0.19998-0.39995-0.19998h-0.95639v-0.41733h1.2694q0.56514 0 0.76511 0.313 0.14781 0.23475 0.14781 0.84336z" style="font-feature-settings:normal;font-variant-caps:normal;font-variant-ligatures:normal;font-variant-numeric:normal"/>
    <path d="m112.06 223.3h-0.73903v-2.6431q0-0.40864-0.0609-0.57383-0.0956-0.30431-0.41733-0.30431h-0.79119v3.5212h-0.74773v-3.5212h-1.2607v3.5212h-0.75642v-3.9386h3.8516q0.57383 0 0.7738 0.313 0.14781 0.23475 0.14781 0.84336z" style="font-feature-settings:normal;font-variant-caps:normal;font-variant-ligatures:normal;font-variant-numeric:normal"/>
    <path d="m115.49 220.53q0 0.39994-0.13911 0.71294-0.18258 0.40864-0.53036 0.40864h-1.052v-0.40864h0.626q0.20867 0 0.3217-0.313 0.0695-0.21736 0.0695-0.48689 0-0.66078-0.26953-0.66078h-0.74772q-0.3043 0-0.40864 0.26953-0.0696 0.1652-0.0696 0.53906v1.4868q0 0.44341 0.0869 0.59122 0.12172 0.22605 0.52167 0.22605-0.1565 0 1.3216-9e-3v0.41733h-1.765q-0.56514 0-0.7738-0.35647-0.14781-0.26953-0.14781-0.88683v-1.452q0-0.61731 0.14781-0.88684 0.20866-0.35647 0.7738-0.35647h1.365q0.34778 0 0.53036 0.42603 0.13911 0.33039 0.13911 0.73903z" style="font-feature-settings:normal;font-variant-caps:normal;font-variant-ligatures:normal;font-variant-numeric:normal"/>
   </g>
   <g transform="matrix(1.1638 0 0 1.1691 -7.4917 -30.363)">
    <path d="m34.957 199.34h4.8314v0.80791h-4.8314z" fill="#e1d5cc" fill-rule="evenodd" style="paint-order:normal"/>
    <path d="m35.014 199.34h4.7516v0.73944h-4.7516z" fill="url(#aj)" fill-rule="evenodd" style="paint-order:normal"/>
    <g transform="matrix(.58581 0 0 1 14.439 .022827)" fill-rule="evenodd">
     <path d="m35.447 199.32h0.7691v0.73943h-0.7691z" fill="url(#af)" style="paint-order:normal"/>
     <path transform="scale(-1,1)" d="m-35.452 199.32h0.32947v0.73943h-0.32947z" fill="url(#ag)" style="paint-order:normal"/>
    </g>
    <g transform="matrix(.58581 0 0 1 18.547 .022827)">
     <path transform="scale(-1,1)" d="m-36.221 199.32h1.4996v0.73943h-1.4996z" fill="url(#ah)" fill-rule="evenodd" style="paint-order:normal"/>
    </g>
    <path transform="matrix(.26458 0 0 .26458 0 164.71)" d="m150 133.19a10.175 0.19003 0 0 1 0.28906 0.01v-0.01zm0.28906 0.17383a10.175 0.19003 0 0 1 -9.168 0.10937 10.175 0.19003 0 0 1 -8.7891 -0.0957v0.31054h17.957z" fill="url(#ai)" fill-rule="evenodd" style="paint-order:normal"/>
   </g>
  </g>
 </g>
</svg>
